<svg width="28" height="28" viewBox="0 0 28 28" fill="none" xmlns="http://www.w3.org/2000/svg">
<path d="M21 9.33325C21 7.47674 20.2625 5.69626 18.9497 4.3835C17.637 3.07075 15.8565 2.33325 14 2.33325C12.1435 2.33325 10.363 3.07075 9.05025 4.3835C7.7375 5.69626 7 7.47674 7 9.33325C7 17.4999 3.5 19.8333 3.5 19.8333H24.5C24.5 19.8333 21 17.4999 21 9.33325Z" stroke="white" stroke-width="2.33333" stroke-linecap="round" stroke-linejoin="round"/>
<path d="M16.0171 24.5C15.812 24.8536 15.5176 25.1471 15.1634 25.3511C14.8092 25.5551 14.4076 25.6625 13.9988 25.6625C13.59 25.6625 13.1884 25.5551 12.8342 25.3511C12.48 25.1471 12.1856 24.8536 11.9805 24.5" stroke="white" stroke-width="2.33333" stroke-linecap="round" stroke-linejoin="round"/>
</svg>
