<svg width="85" height="85" viewBox="0 0 55 55" fill="none" xmlns="http://www.w3.org/2000/svg">
<g clip-path="url(#clip0)">
<path d="M43.4783 19.6869C42.543 19.6869 41.6349 19.8011 40.7642 20.0114C38.1493 15.3895 33.1893 12.2695 27.5 12.2695C21.8107 12.2695 16.8507 15.3896 14.2358 20.0114C13.3651 19.8011 12.457 19.6869 11.5217 19.6869C5.1584 19.6869 0 24.8453 0 31.2087C0 37.572 5.1584 42.7304 11.5217 42.7304H24.0768V35.884H18.3564V35.8106L27.3915 26.375H27.6086L36.6437 35.8106V35.884H30.9233V42.7304H43.4784C49.8416 42.7304 55.0001 37.572 55.0001 31.2087C55.0001 24.8453 49.8416 19.6869 43.4783 19.6869Z" fill="#9EA0A5"/>
</g>
<defs>
<clipPath id="clip0">
<rect width="55" height="55" fill="white"/>
</clipPath>
</defs>
</svg>
