<svg width="178" height="163" viewBox="0 0 178 163" fill="none" xmlns="http://www.w3.org/2000/svg">
<path d="M7.83479 161.946C8.00875 162.089 8.18278 162.226 8.36087 162.36H52.2982C52.6255 162.226 52.9513 162.088 53.2758 161.946C57.9142 159.928 62.2316 157.24 66.09 153.968C68.652 151.798 71.009 149.557 72.7177 147.456C75.1015 144.526 77.2969 141.332 78.3181 137.693C79.337 134.054 79.0326 129.883 76.7564 126.865C76.0516 125.937 75.1851 125.143 74.1985 124.523C74.0349 124.419 73.8692 124.32 73.6994 124.226C70.8676 122.702 67.5642 122.305 64.4517 123.114C60.0505 124.251 56.3929 127.426 53.7832 131.15C51.1736 134.872 49.4793 139.147 47.8101 143.374C46.1159 135.829 40.9856 129.071 34.0556 125.635C27.1275 122.199 18.5198 122.24 11.7389 125.962C9.60535 127.14 7.67806 128.658 6.03286 130.457C5.86934 130.633 5.70975 130.813 5.55239 130.995C2.24483 134.825 0.175704 139.729 0.00590462 144.787C-0.0704368 148.053 0.594349 151.293 1.95032 154.265C3.30628 157.237 5.31816 159.863 7.83479 161.946Z" fill="#F2F2F2"/>
<path d="M50.543 162.361H51.1643C51.1725 162.222 51.1829 162.085 51.1954 161.946C51.4125 159.237 51.8672 156.552 52.554 153.923C54.1299 147.919 56.8216 142.266 60.4886 137.258C64.1451 132.234 68.7548 127.979 74.0546 124.736C74.0934 124.714 74.1266 124.683 74.1517 124.646C74.1768 124.609 74.1932 124.567 74.1996 124.523C74.2097 124.465 74.2032 124.405 74.1808 124.351C74.1584 124.297 74.1211 124.25 74.0731 124.216C74.0251 124.182 73.9685 124.163 73.9099 124.16C73.8512 124.157 73.7929 124.171 73.7418 124.2C73.7276 124.208 73.7138 124.217 73.7005 124.227C70.6978 126.057 67.9105 128.219 65.391 130.672C60.8843 135.068 57.2504 140.278 54.6811 146.025C52.4144 151.059 51.026 156.444 50.576 161.946C50.5636 162.085 50.5533 162.224 50.543 162.361Z" fill="white"/>
<path d="M5.55461 130.995C5.55911 130.997 5.56403 130.999 5.56908 130.999C6.02265 131.082 6.47834 131.169 6.92989 131.262C10.6362 132.023 14.2644 133.125 17.7682 134.553C21.2628 135.979 24.6243 137.712 27.8133 139.731C31.0064 141.749 34.0175 144.042 36.8124 146.583C39.6073 149.12 42.1711 151.901 44.4736 154.892C46.1945 157.133 47.7591 159.49 49.1564 161.946C49.2351 162.083 49.3118 162.222 49.3884 162.361H50.0988C50.0243 162.222 49.9476 162.083 49.8689 161.946C48.1784 158.937 46.24 156.074 44.0738 153.386C41.6784 150.412 39.0231 147.657 36.1393 145.153C33.2738 142.664 30.1984 140.427 26.9475 138.468C23.6831 136.5 20.2509 134.826 16.6912 133.464C13.2367 132.143 9.67027 131.137 6.03508 130.457C5.93365 130.438 5.83424 130.419 5.73271 130.401C5.34548 130.33 5.17972 130.914 5.55461 130.995Z" fill="white"/>
<path d="M17.9074 152.616C22.2342 152.02 26.6281 152.12 30.9236 152.909C35.2066 153.692 39.3414 155.138 43.1792 157.194C45.3359 158.353 47.383 159.705 49.2951 161.235C49.6074 161.484 49.1652 161.921 48.8557 161.674C45.5006 159.005 41.7396 156.891 37.7156 155.412C33.7235 153.935 29.5273 153.084 25.2754 152.888C22.8695 152.778 20.4586 152.887 18.0726 153.215C17.9933 153.234 17.9097 153.222 17.8387 153.182C17.7678 153.141 17.7148 153.076 17.6904 152.998C17.669 152.918 17.6798 152.834 17.7204 152.762C17.7611 152.691 17.8283 152.638 17.9074 152.616H17.9074Z" fill="white"/>
<path d="M174.151 0H87.8335C86.8152 0.00144895 85.839 0.408974 85.1189 1.13323C84.3988 1.85749 83.9936 2.83938 83.9922 3.86364V38.6364C83.9936 39.6606 84.3988 40.6425 85.1189 41.3668C85.839 42.091 86.8152 42.4986 87.8335 42.5H93.9345V55H94.1605C96.6167 54.9974 98.9717 54.0148 100.709 52.2679C102.445 50.521 103.422 48.1524 103.425 45.6818V42.5H174.151C175.169 42.4986 176.145 42.091 176.865 41.3668C177.586 40.6425 177.991 39.6606 177.992 38.6364V3.86364C177.991 2.83938 177.586 1.85749 176.865 1.13324C176.145 0.408977 175.169 0.00144955 174.151 0ZM177.54 38.6364C177.539 39.5402 177.182 40.4067 176.546 41.0457C175.911 41.6848 175.049 42.0444 174.151 42.0455H102.973V45.6818C102.97 47.9924 102.071 50.2106 100.468 51.8653C98.8644 53.52 96.6828 54.4807 94.3864 54.5432V42.0455H87.8335C86.9349 42.0444 86.0735 41.6848 85.4381 41.0457C84.8027 40.4067 84.4452 39.5402 84.4441 38.6364V3.86364C84.4452 2.95983 84.8027 2.09335 85.4381 1.45426C86.0735 0.815169 86.9349 0.455645 87.8335 0.454545H174.151C175.049 0.455645 175.911 0.815169 176.546 1.45426C177.182 2.09335 177.539 2.95983 177.54 3.86364V38.6364Z" fill="#3F3D56"/>
<path d="M157.16 8H104.824C104.093 8.00037 103.39 8.25068 102.863 8.69846C102.336 9.14623 102.025 9.75673 101.997 10.402C101.993 10.4346 101.992 10.4673 101.992 10.5C101.993 11.1628 102.292 11.7981 102.823 12.2667C103.354 12.7354 104.074 12.9991 104.824 13H157.16C157.911 13 158.632 12.7366 159.163 12.2678C159.694 11.7989 159.992 11.163 159.992 10.5C159.992 9.83696 159.694 9.20107 159.163 8.73223C158.632 8.26339 157.911 8 157.16 8Z" fill="#5E50A1"/>
<path d="M157.16 18H104.824C104.093 18.0004 103.39 18.2507 102.863 18.6985C102.336 19.1462 102.025 19.7567 101.997 20.402C101.993 20.4346 101.992 20.4673 101.992 20.5C101.993 21.1628 102.292 21.7981 102.823 22.2667C103.354 22.7354 104.074 22.9991 104.824 23H157.16C157.911 23 158.632 22.7366 159.163 22.2678C159.694 21.7989 159.992 21.163 159.992 20.5C159.992 19.837 159.694 19.2011 159.163 18.7322C158.632 18.2634 157.911 18 157.16 18Z" fill="#5E50A1"/>
<path d="M157.16 28H104.824C104.093 28.0004 103.39 28.2507 102.863 28.6985C102.336 29.1462 102.025 29.7567 101.997 30.402C101.993 30.4346 101.992 30.4673 101.992 30.5C101.993 31.1628 102.292 31.7981 102.823 32.2667C103.354 32.7354 104.074 32.9991 104.824 33H157.16C157.911 33 158.632 32.7366 159.163 32.2678C159.694 31.7989 159.992 31.163 159.992 30.5C159.992 29.837 159.694 29.2011 159.163 28.7322C158.632 28.2634 157.911 28 157.16 28Z" fill="#5E50A1"/>
<path d="M71.8576 94.1603C71.7136 94.1604 71.5698 94.1514 71.427 94.1333C70.9349 94.073 70.4612 93.9093 70.0369 93.6532C69.6125 93.397 69.247 93.054 68.9645 92.6468C68.6819 92.2395 68.4885 91.7771 68.3971 91.2899C68.3057 90.8027 68.3183 90.3017 68.434 89.8197C68.4614 89.7078 68.4945 89.5974 68.5333 89.4889L57.8643 75.8304C57.3946 75.2243 57.1329 74.483 57.1179 73.7163C57.1029 72.9497 57.3355 72.1987 57.7811 71.5747L61.5182 66.3843L66.4028 70.1526L64.4405 73.5238L72.2117 87.1454C72.3679 87.1598 72.523 87.1851 72.6757 87.221C73.513 87.4222 74.2474 87.9235 74.7399 88.6299C75.2323 89.3363 75.4486 90.1988 75.3478 91.0539C75.247 91.9091 74.836 92.6976 74.1928 93.2701C73.5495 93.8426 72.7187 94.1594 71.8576 94.1603L71.8576 94.1603Z" fill="#F5C4CB"/>
<path d="M90.3171 158.881L94.2374 158.88L96.1023 143.759L90.3164 143.76L90.3171 158.881Z" fill="#F5C4CB"/>
<path d="M101.797 162.52L89.476 162.521L89.4758 157.761L97.0363 157.76C97.6615 157.76 98.2805 157.883 98.858 158.122C99.4356 158.362 99.9604 158.712 100.402 159.154C100.845 159.596 101.195 160.121 101.434 160.699C101.674 161.276 101.797 161.895 101.797 162.52Z" fill="#2F2E41"/>
<path d="M58.0241 158.881L61.9444 158.88L63.8093 143.759L58.0234 143.76L58.0241 158.881Z" fill="#F5C4CB"/>
<path d="M69.5 162.52L57.1791 162.521L57.1789 157.761L64.7395 157.76C65.3646 157.76 65.9836 157.883 66.5612 158.122C67.1387 158.362 67.6635 158.712 68.1056 159.154C68.5476 159.596 68.8983 160.121 69.1376 160.699C69.3768 161.276 69.5 161.895 69.5 162.52Z" fill="#2F2E41"/>
<path d="M60.4297 67.1206L69.2312 70.4652L71.38 64.4962C71.6653 63.7036 71.6613 62.8357 71.3686 62.0458C71.0759 61.2559 70.5134 60.5948 69.7805 60.1795C69.0391 59.7594 68.172 59.6182 67.3356 59.7815C66.4992 59.9448 65.7488 60.4018 65.2199 61.0699L60.4297 67.1206Z" fill="#5E50A1"/>
<path d="M89.6239 146.674C89.2725 146.674 88.9312 146.557 88.6537 146.341C88.3763 146.125 88.1785 145.824 88.0914 145.483C83.7024 128.692 79.246 120.275 74.4673 110.543C74.3478 110.301 74.154 110.102 73.9141 109.977C73.6742 109.852 73.4007 109.807 73.1334 109.849C72.8661 109.89 72.6189 110.015 72.4277 110.207C72.2366 110.398 72.1116 110.645 72.0708 110.913L66.1474 145.144C66.0882 145.525 65.8923 145.873 65.5961 146.121C65.2999 146.369 64.9236 146.501 64.5373 146.492L55.7432 146.278C55.5299 146.274 55.3196 146.226 55.1252 146.138C54.9307 146.05 54.7562 145.924 54.612 145.766C54.4598 145.615 54.3433 145.432 54.2712 145.23C54.199 145.029 54.173 144.813 54.1951 144.6C58.1782 118.333 61.3142 94.556 67.3449 87.3025C67.5121 87.1442 67.7038 87.0139 67.9125 86.9167L67.7295 86.8886C67.6772 86.8805 67.5379 86.8591 67.5362 86.7192L67.5345 86.5838L67.672 86.5577C67.8917 86.55 68.1108 86.583 68.3184 86.655L82.0827 88.7733C82.4639 88.832 82.8109 89.0274 83.0588 89.3229C83.3067 89.6185 83.4387 89.9941 83.4301 90.3798C84.1785 93.8804 85.3251 99.1642 85.4277 99.4245C92.7714 113.386 95.6211 124.38 98.583 143.153C98.6443 143.552 98.5527 143.958 98.3266 144.291C98.1005 144.625 97.7566 144.86 97.3641 144.95L89.9824 146.634C89.8648 146.661 89.7446 146.674 89.6239 146.674Z" fill="#FBB017"/>
<path d="M81.8958 91.0623C81.7723 91.0623 81.6492 91.0478 81.5291 91.0192L67.9778 87.7956C67.7701 87.7471 67.5746 87.6565 67.4032 87.5296C67.2319 87.4026 67.0884 87.2418 66.9815 87.0572C66.8713 86.8663 66.8008 86.655 66.7742 86.4362C66.7476 86.2173 66.7655 85.9953 66.8268 85.7835C68.2881 80.7173 66.372 74.4372 64.0836 68.4053C63.7926 66.6415 64.0777 64.8308 64.8967 63.2417C65.7157 61.6527 67.025 60.3698 68.6305 59.5835L68.6673 59.5657L75.782 59.9248C76.9502 60.2311 78.0338 60.7983 78.9514 61.5836C79.8689 62.3689 80.5966 63.352 81.0796 64.459C83.8218 70.877 84.607 79.1124 83.4797 89.6358C83.4383 90.0271 83.2536 90.3893 82.9612 90.6527C82.6688 90.916 82.2893 91.0619 81.8958 91.0623L81.8958 91.0623Z" fill="#5E50A1"/>
<path d="M83.7207 76.4122C82.9973 76.4137 82.2915 76.1894 81.7018 75.7705L76.4531 72.0294L80.1979 67.1268L83.5784 69.073L97.1626 61.2364C97.1762 61.0801 97.2007 60.9249 97.2358 60.772C97.395 60.0948 97.7515 59.48 98.2601 59.0054C98.7687 58.5307 99.4067 58.2176 100.093 58.1055C100.78 57.9934 101.484 58.0875 102.117 58.3757C102.751 58.664 103.284 59.1336 103.65 59.725C104.017 60.3164 104.199 61.0032 104.175 61.6985C104.151 62.3937 103.922 63.0663 103.515 63.631C103.109 64.1958 102.545 64.6274 101.893 64.8712C101.241 65.1151 100.532 65.1603 99.855 65.0011C99.743 64.9742 99.6324 64.9416 99.5237 64.9034L85.8778 75.6687C85.2627 76.1518 84.5028 76.4138 83.7207 76.4122Z" fill="#F5C4CB"/>
<path d="M74.7875 73.5563L82.5734 68.2617L78.9144 63.0793C78.4285 62.3912 77.715 61.8969 76.9 61.6839C76.085 61.4709 75.2209 61.5529 74.4605 61.9153C73.6912 62.282 73.0784 62.9116 72.7328 63.6905C72.3871 64.4694 72.3314 65.3463 72.5756 66.1627L74.7875 73.5563Z" fill="#5E50A1"/>
<path d="M71.0413 56.9083C75.3789 56.9083 78.8951 53.392 78.8951 49.0545C78.8951 44.7169 75.3789 41.2007 71.0413 41.2007C66.7038 41.2007 63.1875 44.7169 63.1875 49.0545C63.1875 53.392 66.7038 56.9083 71.0413 56.9083Z" fill="#F5C4CB"/>
<path d="M71.7605 57.0901C70.5817 57.0849 69.6724 55.8439 69.7252 54.6662C69.7781 53.4886 70.569 52.4525 71.5219 51.7586C72.4748 51.0647 73.5923 50.642 74.655 50.1318C75.7176 49.6217 76.771 48.9853 77.4271 48.006C77.8235 47.365 78.0601 46.6382 78.117 45.8867C78.174 45.1352 78.0496 44.3811 77.7543 43.6877C77.1438 42.3009 76.0954 41.1525 74.7699 40.4183C72.8008 39.2657 70.4699 38.8972 68.2413 39.3861C66.0127 39.875 64.0501 41.1855 62.7444 43.0565L61.3988 46.7204C60.0277 48.3692 59.8102 50.8177 60.653 52.7895C61.4959 54.7613 63.2905 56.2448 65.3156 56.9501C67.3702 57.6104 69.5696 57.6763 71.6601 57.1403" fill="#2F2E41"/>
<path d="M63.2746 45.3308C62.7366 44.5012 62.0027 43.8166 61.1377 43.3376C60.2726 42.8585 59.303 42.5997 58.3143 42.5838C57.3256 42.5679 56.3482 42.7955 55.4683 43.2466C54.5883 43.6976 53.8328 44.3582 53.2684 45.1701C52.3237 46.5293 51.9806 48.2047 51.331 49.7271C50.1544 52.4536 48.0145 54.651 45.3203 55.8995C47.6793 56.3144 50.0295 55.1143 51.9155 53.6378C53.8015 52.1612 55.4602 50.359 57.5724 49.2295C59.234 48.3442 61.1007 47.9155 62.9821 47.987" fill="#2F2E41"/>
<path d="M129.386 163H7.55414C7.46933 163 7.388 162.966 7.32803 162.906C7.26806 162.846 7.23438 162.765 7.23438 162.68C7.23438 162.595 7.26806 162.514 7.32803 162.454C7.388 162.394 7.46933 162.36 7.55414 162.36H129.386C129.47 162.36 129.552 162.394 129.612 162.454C129.672 162.514 129.705 162.595 129.705 162.68C129.705 162.765 129.672 162.846 129.612 162.906C129.552 162.966 129.47 163 129.386 163Z" fill="#3F3D56"/>
</svg>
