<svg width="136" height="28" viewBox="0 0 136 28" fill="none" xmlns="http://www.w3.org/2000/svg">
<path d="M35.0098 9.10059C35.0098 9.72884 34.7819 10.2188 34.3262 10.5703C33.8704 10.9219 33.252 11.0977 32.4707 11.0977C31.6243 11.0977 30.9733 10.9886 30.5176 10.7705V9.96973C30.8105 10.0934 31.1296 10.1911 31.4746 10.2627C31.8197 10.3343 32.1615 10.3701 32.5 10.3701C33.0534 10.3701 33.4701 10.266 33.75 10.0576C34.0299 9.84603 34.1699 9.55306 34.1699 9.17871C34.1699 8.93132 34.1195 8.72949 34.0186 8.57324C33.9209 8.41374 33.7549 8.26725 33.5205 8.13379C33.2894 8.00033 32.9362 7.84896 32.4609 7.67969C31.7969 7.44206 31.3216 7.16048 31.0352 6.83496C30.752 6.50944 30.6104 6.08464 30.6104 5.56055C30.6104 5.01042 30.8171 4.57259 31.2305 4.24707C31.6439 3.92155 32.1908 3.75879 32.8711 3.75879C33.5807 3.75879 34.2334 3.889 34.8291 4.14941L34.5703 4.87207C33.9811 4.62467 33.4082 4.50098 32.8516 4.50098C32.4121 4.50098 32.0687 4.59538 31.8213 4.78418C31.5739 4.97298 31.4502 5.23503 31.4502 5.57031C31.4502 5.81771 31.4958 6.02116 31.5869 6.18066C31.6781 6.33691 31.8311 6.48177 32.0459 6.61523C32.264 6.74544 32.596 6.8903 33.042 7.0498C33.7907 7.31673 34.305 7.60319 34.585 7.90918C34.8682 8.21517 35.0098 8.6123 35.0098 9.10059ZM37.1582 11H36.3477V5.64844H37.1582V11ZM36.2793 4.19824C36.2793 4.0127 36.3249 3.8776 36.416 3.79297C36.5072 3.70508 36.6211 3.66113 36.7578 3.66113C36.888 3.66113 37.0003 3.70508 37.0947 3.79297C37.1891 3.88086 37.2363 4.01595 37.2363 4.19824C37.2363 4.38053 37.1891 4.51725 37.0947 4.6084C37.0003 4.69629 36.888 4.74023 36.7578 4.74023C36.6211 4.74023 36.5072 4.69629 36.416 4.6084C36.3249 4.51725 36.2793 4.38053 36.2793 4.19824ZM42.2998 11H38.418V10.4482L41.3379 6.27832H38.5986V5.64844H42.2266V6.27832L39.3457 10.3701H42.2998V11ZM45.8154 11.0977C45.0244 11.0977 44.3994 10.8568 43.9404 10.375C43.4847 9.89323 43.2568 9.22428 43.2568 8.36816C43.2568 7.50553 43.4684 6.82031 43.8916 6.3125C44.318 5.80469 44.8893 5.55078 45.6055 5.55078C46.276 5.55078 46.8066 5.77214 47.1973 6.21484C47.5879 6.6543 47.7832 7.23535 47.7832 7.95801V8.4707H44.0967C44.113 9.09896 44.2708 9.57585 44.5703 9.90137C44.873 10.2269 45.2979 10.3896 45.8447 10.3896C46.4209 10.3896 46.9906 10.2692 47.5537 10.0283V10.751C47.2673 10.8747 46.9954 10.9626 46.7383 11.0146C46.4844 11.07 46.1768 11.0977 45.8154 11.0977ZM45.5957 6.22949C45.166 6.22949 44.8226 6.36947 44.5654 6.64941C44.3115 6.92936 44.1618 7.31673 44.1162 7.81152H46.9141C46.9141 7.30046 46.8001 6.90983 46.5723 6.63965C46.3444 6.36621 46.0189 6.22949 45.5957 6.22949ZM33.4912 25H32.7002V19.9121C32.7002 19.4889 32.7132 19.0885 32.7393 18.7109C32.6709 18.7793 32.5944 18.8509 32.5098 18.9258C32.4251 19.0007 32.0378 19.318 31.3477 19.8779L30.918 19.3213L32.8076 17.8613H33.4912V25ZM40.9424 21.4209C40.9424 22.6546 40.7471 23.5758 40.3564 24.1846C39.9691 24.7933 39.375 25.0977 38.5742 25.0977C37.806 25.0977 37.2217 24.7868 36.8213 24.165C36.4209 23.54 36.2207 22.6253 36.2207 21.4209C36.2207 20.1774 36.4144 19.2546 36.8018 18.6523C37.1891 18.0501 37.7799 17.749 38.5742 17.749C39.349 17.749 39.9365 18.0632 40.3369 18.6914C40.7406 19.3197 40.9424 20.2295 40.9424 21.4209ZM37.041 21.4209C37.041 22.4593 37.1631 23.2161 37.4072 23.6914C37.6514 24.1634 38.0404 24.3994 38.5742 24.3994C39.1146 24.3994 39.5052 24.1602 39.7461 23.6816C39.9902 23.1999 40.1123 22.4463 40.1123 21.4209C40.1123 20.3955 39.9902 19.6452 39.7461 19.1699C39.5052 18.6914 39.1146 18.4521 38.5742 18.4521C38.0404 18.4521 37.6514 18.6882 37.4072 19.1602C37.1631 19.6289 37.041 20.3825 37.041 21.4209ZM44.2969 17.7588C44.9479 17.7588 45.4639 17.9102 45.8447 18.2129C46.2256 18.5156 46.416 18.9339 46.416 19.4678C46.416 19.8193 46.307 20.14 46.0889 20.4297C45.8708 20.7194 45.5225 20.9831 45.0439 21.2207C45.6234 21.4974 46.0352 21.7887 46.2793 22.0947C46.5234 22.3975 46.6455 22.749 46.6455 23.1494C46.6455 23.7419 46.4388 24.2155 46.0254 24.5703C45.612 24.9219 45.0456 25.0977 44.3262 25.0977C43.5645 25.0977 42.9785 24.9316 42.5684 24.5996C42.1582 24.2643 41.9531 23.7907 41.9531 23.1787C41.9531 22.3617 42.4512 21.7253 43.4473 21.2695C42.998 21.0156 42.6758 20.7422 42.4805 20.4492C42.2852 20.153 42.1875 19.8226 42.1875 19.458C42.1875 18.9404 42.3779 18.5286 42.7588 18.2227C43.1429 17.9134 43.6556 17.7588 44.2969 17.7588ZM42.7539 23.1982C42.7539 23.5889 42.889 23.8932 43.1592 24.1113C43.4326 24.3294 43.8151 24.4385 44.3066 24.4385C44.7917 24.4385 45.1693 24.3245 45.4395 24.0967C45.7096 23.8688 45.8447 23.5563 45.8447 23.1592C45.8447 22.8434 45.7178 22.5635 45.4639 22.3193C45.21 22.0719 44.7673 21.8327 44.1357 21.6016C43.6507 21.8099 43.2992 22.041 43.0811 22.2949C42.863 22.5456 42.7539 22.8467 42.7539 23.1982ZM44.2871 18.418C43.8802 18.418 43.5612 18.5156 43.3301 18.7109C43.099 18.9062 42.9834 19.1667 42.9834 19.4922C42.9834 19.7917 43.0794 20.0488 43.2715 20.2637C43.4635 20.4785 43.8184 20.6934 44.3359 20.9082C44.8014 20.7129 45.1302 20.5029 45.3223 20.2783C45.5176 20.0537 45.6152 19.7917 45.6152 19.4922C45.6152 19.1634 45.4964 18.903 45.2588 18.7109C45.0244 18.5156 44.7005 18.418 44.2871 18.418ZM52.3877 21.4209C52.3877 22.6546 52.1924 23.5758 51.8018 24.1846C51.4144 24.7933 50.8203 25.0977 50.0195 25.0977C49.2513 25.0977 48.667 24.7868 48.2666 24.165C47.8662 23.54 47.666 22.6253 47.666 21.4209C47.666 20.1774 47.8597 19.2546 48.2471 18.6523C48.6344 18.0501 49.2253 17.749 50.0195 17.749C50.7943 17.749 51.3818 18.0632 51.7822 18.6914C52.1859 19.3197 52.3877 20.2295 52.3877 21.4209ZM48.4863 21.4209C48.4863 22.4593 48.6084 23.2161 48.8525 23.6914C49.0967 24.1634 49.4857 24.3994 50.0195 24.3994C50.5599 24.3994 50.9505 24.1602 51.1914 23.6816C51.4355 23.1999 51.5576 22.4463 51.5576 21.4209C51.5576 20.3955 51.4355 19.6452 51.1914 19.1699C50.9505 18.6914 50.5599 18.4521 50.0195 18.4521C49.4857 18.4521 49.0967 18.6882 48.8525 19.1602C48.6084 19.6289 48.4863 20.3825 48.4863 21.4209ZM55.0391 22.2607L53.1787 19.6484H54.1016L55.5127 21.6992L56.9189 19.6484H57.832L55.9717 22.2607L57.9297 25H57.0117L55.5127 22.832L53.999 25H53.0811L55.0391 22.2607ZM61.626 25H60.835V19.9121C60.835 19.4889 60.848 19.0885 60.874 18.7109C60.8057 18.7793 60.7292 18.8509 60.6445 18.9258C60.5599 19.0007 60.1725 19.318 59.4824 19.8779L59.0527 19.3213L60.9424 17.8613H61.626V25ZM69.0381 20.9082C69.0381 23.7012 67.9574 25.0977 65.7959 25.0977C65.4183 25.0977 65.1188 25.0651 64.8975 25V24.3018C65.1579 24.3864 65.4541 24.4287 65.7861 24.4287C66.5674 24.4287 67.1566 24.1878 67.5537 23.7061C67.9541 23.221 68.1722 22.4788 68.208 21.4795H68.1494C67.9704 21.7497 67.7327 21.9564 67.4365 22.0996C67.1403 22.2396 66.8066 22.3096 66.4355 22.3096C65.804 22.3096 65.3027 22.1208 64.9316 21.7432C64.5605 21.3656 64.375 20.8382 64.375 20.1611C64.375 19.4189 64.5817 18.833 64.9951 18.4033C65.4118 17.9736 65.9587 17.7588 66.6357 17.7588C67.1208 17.7588 67.5439 17.8841 67.9053 18.1348C68.2699 18.3822 68.5498 18.7451 68.7451 19.2236C68.9404 19.6989 69.0381 20.2604 69.0381 20.9082ZM66.6357 18.4521C66.1702 18.4521 65.8105 18.6019 65.5566 18.9014C65.3027 19.2008 65.1758 19.6175 65.1758 20.1514C65.1758 20.6201 65.293 20.9896 65.5273 21.2598C65.7617 21.5267 66.1182 21.6602 66.5967 21.6602C66.8929 21.6602 67.1647 21.5999 67.4121 21.4795C67.6628 21.359 67.8597 21.1947 68.0029 20.9863C68.1462 20.778 68.2178 20.5599 68.2178 20.332C68.2178 19.9902 68.151 19.6745 68.0176 19.3848C67.8841 19.0951 67.6969 18.8672 67.4561 18.7012C67.2184 18.5352 66.945 18.4521 66.6357 18.4521ZM74.7607 25H70.0684V24.3018L71.9482 22.4121C72.5212 21.8327 72.8988 21.4193 73.0811 21.1719C73.2633 20.9245 73.4001 20.6836 73.4912 20.4492C73.5824 20.2148 73.6279 19.9626 73.6279 19.6924C73.6279 19.3115 73.5124 19.0104 73.2812 18.7891C73.0501 18.5645 72.7295 18.4521 72.3193 18.4521C72.0231 18.4521 71.7415 18.501 71.4746 18.5986C71.2109 18.6963 70.9163 18.8737 70.5908 19.1309L70.1611 18.5791C70.8187 18.0322 71.5348 17.7588 72.3096 17.7588C72.9801 17.7588 73.5059 17.9313 73.8867 18.2764C74.2676 18.6182 74.458 19.0788 74.458 19.6582C74.458 20.1107 74.3311 20.5583 74.0771 21.001C73.8232 21.4437 73.348 22.0036 72.6514 22.6807L71.0889 24.209V24.248H74.7607V25ZM80.5225 21.4209C80.5225 22.6546 80.3271 23.5758 79.9365 24.1846C79.5492 24.7933 78.9551 25.0977 78.1543 25.0977C77.3861 25.0977 76.8018 24.7868 76.4014 24.165C76.001 23.54 75.8008 22.6253 75.8008 21.4209C75.8008 20.1774 75.9945 19.2546 76.3818 18.6523C76.7692 18.0501 77.36 17.749 78.1543 17.749C78.929 17.749 79.5166 18.0632 79.917 18.6914C80.3206 19.3197 80.5225 20.2295 80.5225 21.4209ZM76.6211 21.4209C76.6211 22.4593 76.7432 23.2161 76.9873 23.6914C77.2314 24.1634 77.6204 24.3994 78.1543 24.3994C78.6947 24.3994 79.0853 24.1602 79.3262 23.6816C79.5703 23.1999 79.6924 22.4463 79.6924 21.4209C79.6924 20.3955 79.5703 19.6452 79.3262 19.1699C79.0853 18.6914 78.6947 18.4521 78.1543 18.4521C77.6204 18.4521 77.2314 18.6882 76.9873 19.1602C76.7432 19.6289 76.6211 20.3825 76.6211 21.4209ZM89.1016 22.3193C89.1016 23.1917 88.8818 23.8737 88.4424 24.3652C88.0029 24.8535 87.3958 25.0977 86.6211 25.0977C86.1426 25.0977 85.7178 24.9854 85.3467 24.7607C84.9756 24.5361 84.6891 24.2139 84.4873 23.7939C84.2855 23.374 84.1846 22.8825 84.1846 22.3193C84.1846 21.4469 84.4027 20.7682 84.8389 20.2832C85.2751 19.7949 85.8805 19.5508 86.6553 19.5508C87.404 19.5508 87.998 19.7998 88.4375 20.2979C88.8802 20.7959 89.1016 21.4697 89.1016 22.3193ZM85.0244 22.3193C85.0244 23.0029 85.1611 23.5238 85.4346 23.8818C85.708 24.2399 86.11 24.4189 86.6406 24.4189C87.1712 24.4189 87.5732 24.2415 87.8467 23.8867C88.1234 23.5286 88.2617 23.0062 88.2617 22.3193C88.2617 21.639 88.1234 21.123 87.8467 20.7715C87.5732 20.4167 87.168 20.2393 86.6309 20.2393C86.1003 20.2393 85.6999 20.4134 85.4297 20.7617C85.1595 21.11 85.0244 21.6292 85.0244 22.3193ZM92.9688 19.5508C93.2064 19.5508 93.4196 19.5703 93.6084 19.6094L93.4961 20.3613C93.2747 20.3125 93.0794 20.2881 92.9102 20.2881C92.4772 20.2881 92.1061 20.4639 91.7969 20.8154C91.4909 21.167 91.3379 21.6048 91.3379 22.1289V25H90.5273V19.6484H91.1963L91.2891 20.6396H91.3281C91.5267 20.2913 91.766 20.0228 92.0459 19.834C92.3258 19.6452 92.6335 19.5508 92.9688 19.5508ZM96.9189 21.9482C96.9189 20.5452 97.1908 19.4971 97.7344 18.8037C98.2812 18.1071 99.0885 17.7588 100.156 17.7588C100.524 17.7588 100.814 17.7897 101.025 17.8516V18.5498C100.775 18.4684 100.488 18.4277 100.166 18.4277C99.401 18.4277 98.8167 18.667 98.4131 19.1455C98.0094 19.6208 97.7881 20.3695 97.749 21.3916H97.8076C98.1657 20.8317 98.7321 20.5518 99.5068 20.5518C100.148 20.5518 100.653 20.7454 101.021 21.1328C101.392 21.5202 101.577 22.0459 101.577 22.71C101.577 23.4521 101.374 24.0365 100.967 24.4629C100.563 24.8861 100.016 25.0977 99.3262 25.0977C98.5872 25.0977 98.0013 24.821 97.5684 24.2676C97.1354 23.7109 96.9189 22.9378 96.9189 21.9482ZM99.3164 24.4092C99.7786 24.4092 100.137 24.2643 100.391 23.9746C100.648 23.6816 100.776 23.2601 100.776 22.71C100.776 22.238 100.658 21.8669 100.42 21.5967C100.182 21.3265 99.8275 21.1914 99.3555 21.1914C99.0625 21.1914 98.7939 21.2516 98.5498 21.3721C98.3057 21.4925 98.1104 21.6585 97.9639 21.8701C97.8206 22.0817 97.749 22.3014 97.749 22.5293C97.749 22.8646 97.8141 23.1771 97.9443 23.4668C98.0745 23.7565 98.2585 23.986 98.4961 24.1553C98.737 24.3245 99.0104 24.4092 99.3164 24.4092ZM107.29 21.4209C107.29 22.6546 107.095 23.5758 106.704 24.1846C106.317 24.7933 105.723 25.0977 104.922 25.0977C104.154 25.0977 103.569 24.7868 103.169 24.165C102.769 23.54 102.568 22.6253 102.568 21.4209C102.568 20.1774 102.762 19.2546 103.149 18.6523C103.537 18.0501 104.128 17.749 104.922 17.749C105.697 17.749 106.284 18.0632 106.685 18.6914C107.088 19.3197 107.29 20.2295 107.29 21.4209ZM103.389 21.4209C103.389 22.4593 103.511 23.2161 103.755 23.6914C103.999 24.1634 104.388 24.3994 104.922 24.3994C105.462 24.3994 105.853 24.1602 106.094 23.6816C106.338 23.1999 106.46 22.4463 106.46 21.4209C106.46 20.3955 106.338 19.6452 106.094 19.1699C105.853 18.6914 105.462 18.4521 104.922 18.4521C104.388 18.4521 103.999 18.6882 103.755 19.1602C103.511 19.6289 103.389 20.3825 103.389 21.4209ZM113.013 21.4209C113.013 22.6546 112.817 23.5758 112.427 24.1846C112.039 24.7933 111.445 25.0977 110.645 25.0977C109.876 25.0977 109.292 24.7868 108.892 24.165C108.491 23.54 108.291 22.6253 108.291 21.4209C108.291 20.1774 108.485 19.2546 108.872 18.6523C109.259 18.0501 109.85 17.749 110.645 17.749C111.419 17.749 112.007 18.0632 112.407 18.6914C112.811 19.3197 113.013 20.2295 113.013 21.4209ZM109.111 21.4209C109.111 22.4593 109.233 23.2161 109.478 23.6914C109.722 24.1634 110.111 24.3994 110.645 24.3994C111.185 24.3994 111.576 24.1602 111.816 23.6816C112.061 23.1999 112.183 22.4463 112.183 21.4209C112.183 20.3955 112.061 19.6452 111.816 19.1699C111.576 18.6914 111.185 18.4521 110.645 18.4521C110.111 18.4521 109.722 18.6882 109.478 19.1602C109.233 19.6289 109.111 20.3825 109.111 21.4209ZM115.664 22.2607L113.804 19.6484H114.727L116.138 21.6992L117.544 19.6484H118.457L116.597 22.2607L118.555 25H117.637L116.138 22.832L114.624 25H113.706L115.664 22.2607ZM121.611 17.7588C122.262 17.7588 122.778 17.9102 123.159 18.2129C123.54 18.5156 123.73 18.9339 123.73 19.4678C123.73 19.8193 123.621 20.14 123.403 20.4297C123.185 20.7194 122.837 20.9831 122.358 21.2207C122.938 21.4974 123.35 21.7887 123.594 22.0947C123.838 22.3975 123.96 22.749 123.96 23.1494C123.96 23.7419 123.753 24.2155 123.34 24.5703C122.926 24.9219 122.36 25.0977 121.641 25.0977C120.879 25.0977 120.293 24.9316 119.883 24.5996C119.473 24.2643 119.268 23.7907 119.268 23.1787C119.268 22.3617 119.766 21.7253 120.762 21.2695C120.312 21.0156 119.99 20.7422 119.795 20.4492C119.6 20.153 119.502 19.8226 119.502 19.458C119.502 18.9404 119.692 18.5286 120.073 18.2227C120.457 17.9134 120.97 17.7588 121.611 17.7588ZM120.068 23.1982C120.068 23.5889 120.203 23.8932 120.474 24.1113C120.747 24.3294 121.13 24.4385 121.621 24.4385C122.106 24.4385 122.484 24.3245 122.754 24.0967C123.024 23.8688 123.159 23.5563 123.159 23.1592C123.159 22.8434 123.032 22.5635 122.778 22.3193C122.524 22.0719 122.082 21.8327 121.45 21.6016C120.965 21.8099 120.614 22.041 120.396 22.2949C120.177 22.5456 120.068 22.8467 120.068 23.1982ZM121.602 18.418C121.195 18.418 120.876 18.5156 120.645 18.7109C120.413 18.9062 120.298 19.1667 120.298 19.4922C120.298 19.7917 120.394 20.0488 120.586 20.2637C120.778 20.4785 121.133 20.6934 121.65 20.9082C122.116 20.7129 122.445 20.5029 122.637 20.2783C122.832 20.0537 122.93 19.7917 122.93 19.4922C122.93 19.1634 122.811 18.903 122.573 18.7109C122.339 18.5156 122.015 18.418 121.602 18.418ZM129.702 21.4209C129.702 22.6546 129.507 23.5758 129.116 24.1846C128.729 24.7933 128.135 25.0977 127.334 25.0977C126.566 25.0977 125.981 24.7868 125.581 24.165C125.181 23.54 124.98 22.6253 124.98 21.4209C124.98 20.1774 125.174 19.2546 125.562 18.6523C125.949 18.0501 126.54 17.749 127.334 17.749C128.109 17.749 128.696 18.0632 129.097 18.6914C129.5 19.3197 129.702 20.2295 129.702 21.4209ZM125.801 21.4209C125.801 22.4593 125.923 23.2161 126.167 23.6914C126.411 24.1634 126.8 24.3994 127.334 24.3994C127.874 24.3994 128.265 24.1602 128.506 23.6816C128.75 23.1999 128.872 22.4463 128.872 21.4209C128.872 20.3955 128.75 19.6452 128.506 19.1699C128.265 18.6914 127.874 18.4521 127.334 18.4521C126.8 18.4521 126.411 18.6882 126.167 19.1602C125.923 19.6289 125.801 20.3825 125.801 21.4209ZM135.425 21.4209C135.425 22.6546 135.229 23.5758 134.839 24.1846C134.451 24.7933 133.857 25.0977 133.057 25.0977C132.288 25.0977 131.704 24.7868 131.304 24.165C130.903 23.54 130.703 22.6253 130.703 21.4209C130.703 20.1774 130.897 19.2546 131.284 18.6523C131.672 18.0501 132.262 17.749 133.057 17.749C133.831 17.749 134.419 18.0632 134.819 18.6914C135.223 19.3197 135.425 20.2295 135.425 21.4209ZM131.523 21.4209C131.523 22.4593 131.646 23.2161 131.89 23.6914C132.134 24.1634 132.523 24.3994 133.057 24.3994C133.597 24.3994 133.988 24.1602 134.229 23.6816C134.473 23.1999 134.595 22.4463 134.595 21.4209C134.595 20.3955 134.473 19.6452 134.229 19.1699C133.988 18.6914 133.597 18.4521 133.057 18.4521C132.523 18.4521 132.134 18.6882 131.89 19.1602C131.646 19.6289 131.523 20.3825 131.523 21.4209Z" fill="#1F2A36"/>
<path d="M24.1699 3.831C23.9325 3.59361 23.5465 3.59361 23.3091 3.831L14.7874 12.3527C14.55 12.5901 14.55 12.976 14.7874 13.2134C14.9067 13.3315 15.0625 13.3912 15.2184 13.3912C15.3742 13.3912 15.53 13.3316 15.6481 13.2134L24.1699 4.69172C24.4072 4.45432 24.4072 4.06839 24.1699 3.831Z" fill="#9EA0A5"/>
<path d="M23.7415 3.65217C23.4055 3.65217 23.1328 3.92488 23.1328 4.26088V11.5652C23.1328 11.9012 23.4055 12.1739 23.7415 12.1739C24.0775 12.1739 24.3502 11.9012 24.3502 11.5652V4.26088C24.3502 3.92488 24.0775 3.65217 23.7415 3.65217Z" fill="#9EA0A5"/>
<path d="M23.7412 3.65217H16.4368C16.1008 3.65217 15.8281 3.92488 15.8281 4.26088C15.8281 4.59688 16.1008 4.86954 16.4368 4.86954H23.7412C24.0772 4.86954 24.3499 4.59682 24.3499 4.26082C24.3499 3.92483 24.0772 3.65217 23.7412 3.65217Z" fill="#9EA0A5"/>
<path d="M13.2128 14.7874C12.9754 14.55 12.5895 14.55 12.3521 14.7874L3.83039 23.3091C3.593 23.5465 3.593 23.9324 3.83039 24.1698C3.94971 24.2879 4.1055 24.3476 4.26134 24.3476C4.41719 24.3476 4.57298 24.288 4.6911 24.1698L13.2128 15.6481C13.4502 15.4107 13.4502 15.0248 13.2128 14.7874Z" fill="#9EA0A5"/>
<path d="M4.26106 15.826C3.92506 15.826 3.65234 16.0987 3.65234 16.4347V23.7391C3.65234 24.0751 3.92506 24.3478 4.26106 24.3478C4.59706 24.3478 4.86971 24.0751 4.86971 23.7391V16.4347C4.86971 16.0987 4.59706 15.826 4.26106 15.826Z" fill="#9EA0A5"/>
<path d="M11.5654 23.1303H4.26106C3.92506 23.1303 3.65234 23.403 3.65234 23.739C3.65234 24.075 3.92506 24.3477 4.26106 24.3477H11.5654C11.9014 24.3477 12.1741 24.075 12.1741 23.739C12.1741 23.403 11.9014 23.1303 11.5654 23.1303Z" fill="#9EA0A5"/>
<path d="M26.1739 0H1.82609C0.819285 0 0 0.819285 0 1.82609V26.1739C0 27.1807 0.819285 28 1.82609 28H26.1739C27.1807 28 28 27.1807 28 26.1739V1.82609C28 0.819285 27.1807 0 26.1739 0ZM26.7826 26.1739C26.7826 26.5087 26.5087 26.7826 26.1739 26.7826H1.82609C1.49128 26.7826 1.21737 26.5087 1.21737 26.1739V1.82609C1.21737 1.49128 1.49128 1.21737 1.82609 1.21737H26.1739C26.5087 1.21737 26.7826 1.49128 26.7826 1.82609V26.1739H26.7826Z" fill="#9EA0A5"/>
</svg>
