<svg width="103" height="28" viewBox="0 0 103 28" fill="none" xmlns="http://www.w3.org/2000/svg">
<path d="M36.4014 11H35.5713V7.64062H31.8115V11H30.9814V3.86133H31.8115V6.89844H35.5713V3.86133H36.4014V11ZM39.0527 11H38.2422V5.64844H39.0527V11ZM38.1738 4.19824C38.1738 4.0127 38.2194 3.8776 38.3105 3.79297C38.4017 3.70508 38.5156 3.66113 38.6523 3.66113C38.7826 3.66113 38.8949 3.70508 38.9893 3.79297C39.0837 3.88086 39.1309 4.01595 39.1309 4.19824C39.1309 4.38053 39.0837 4.51725 38.9893 4.6084C38.8949 4.69629 38.7826 4.74023 38.6523 4.74023C38.5156 4.74023 38.4017 4.69629 38.3105 4.6084C38.2194 4.51725 38.1738 4.38053 38.1738 4.19824ZM45.1514 5.64844V6.16113L44.1602 6.27832C44.2513 6.39225 44.3327 6.54199 44.4043 6.72754C44.4759 6.90983 44.5117 7.11654 44.5117 7.34766C44.5117 7.87174 44.3327 8.29004 43.9746 8.60254C43.6165 8.91504 43.125 9.07129 42.5 9.07129C42.3405 9.07129 42.1908 9.05827 42.0508 9.03223C41.7057 9.21452 41.5332 9.44401 41.5332 9.7207C41.5332 9.86719 41.5934 9.97624 41.7139 10.0479C41.8343 10.1162 42.041 10.1504 42.334 10.1504H43.2812C43.8607 10.1504 44.305 10.2725 44.6143 10.5166C44.9268 10.7607 45.083 11.1156 45.083 11.5811C45.083 12.1735 44.8454 12.6243 44.3701 12.9336C43.8949 13.2461 43.2015 13.4023 42.29 13.4023C41.5902 13.4023 41.0498 13.2721 40.6689 13.0117C40.2913 12.7513 40.1025 12.3835 40.1025 11.9082C40.1025 11.5827 40.2067 11.3011 40.415 11.0635C40.6234 10.8258 40.9163 10.6647 41.2939 10.5801C41.1572 10.5182 41.0417 10.4222 40.9473 10.292C40.8561 10.1618 40.8105 10.0104 40.8105 9.83789C40.8105 9.64258 40.8626 9.47168 40.9668 9.3252C41.071 9.17871 41.2354 9.03711 41.46 8.90039C41.1833 8.78646 40.957 8.59277 40.7812 8.31934C40.6087 8.0459 40.5225 7.7334 40.5225 7.38184C40.5225 6.7959 40.6982 6.34505 41.0498 6.0293C41.4014 5.71029 41.8994 5.55078 42.5439 5.55078C42.8239 5.55078 43.0762 5.58333 43.3008 5.64844H45.1514ZM40.8838 11.8984C40.8838 12.1882 41.0059 12.4079 41.25 12.5576C41.4941 12.7074 41.8441 12.7822 42.2998 12.7822C42.9801 12.7822 43.4831 12.6797 43.8086 12.4746C44.1374 12.2728 44.3018 11.9977 44.3018 11.6494C44.3018 11.3597 44.2122 11.1579 44.0332 11.0439C43.8542 10.9333 43.5173 10.8779 43.0225 10.8779H42.0508C41.6829 10.8779 41.3965 10.9658 41.1914 11.1416C40.9863 11.3174 40.8838 11.5697 40.8838 11.8984ZM41.3232 7.3623C41.3232 7.73665 41.429 8.01986 41.6406 8.21191C41.8522 8.40397 42.1468 8.5 42.5244 8.5C43.3154 8.5 43.7109 8.11589 43.7109 7.34766C43.7109 6.54362 43.3105 6.1416 42.5098 6.1416C42.1289 6.1416 41.8359 6.24414 41.6309 6.44922C41.4258 6.6543 41.3232 6.95866 41.3232 7.3623ZM49.9121 11V7.53809C49.9121 7.10189 49.8128 6.77637 49.6143 6.56152C49.4157 6.34668 49.1048 6.23926 48.6816 6.23926C48.1185 6.23926 47.7067 6.39225 47.4463 6.69824C47.1891 7.00423 47.0605 7.50553 47.0605 8.20215V11H46.25V3.40234H47.0605V5.70215C47.0605 5.97884 47.0475 6.20833 47.0215 6.39062H47.0703C47.2298 6.13346 47.4561 5.93164 47.749 5.78516C48.0452 5.63542 48.3822 5.56055 48.7598 5.56055C49.4141 5.56055 49.904 5.7168 50.2295 6.0293C50.5583 6.33854 50.7227 6.83171 50.7227 7.50879V11H49.9121ZM51.9434 8.69043V7.94824H54.3408V8.69043H51.9434ZM56.5674 8.03125V11H55.7373V3.86133H57.6953C58.571 3.86133 59.2171 4.02897 59.6338 4.36426C60.0537 4.69954 60.2637 5.2041 60.2637 5.87793C60.2637 6.82194 59.7852 7.45996 58.8281 7.79199L60.7666 11H59.7852L58.0566 8.03125H56.5674ZM56.5674 7.31836H57.7051C58.291 7.31836 58.7207 7.2028 58.9941 6.97168C59.2676 6.7373 59.4043 6.38737 59.4043 5.92188C59.4043 5.44987 59.2643 5.1097 58.9844 4.90137C58.7077 4.69303 58.2617 4.58887 57.6465 4.58887H56.5674V7.31836ZM64.0576 11.0977C63.2666 11.0977 62.6416 10.8568 62.1826 10.375C61.7269 9.89323 61.499 9.22428 61.499 8.36816C61.499 7.50553 61.7106 6.82031 62.1338 6.3125C62.5602 5.80469 63.1315 5.55078 63.8477 5.55078C64.5182 5.55078 65.0488 5.77214 65.4395 6.21484C65.8301 6.6543 66.0254 7.23535 66.0254 7.95801V8.4707H62.3389C62.3551 9.09896 62.513 9.57585 62.8125 9.90137C63.1152 10.2269 63.54 10.3896 64.0869 10.3896C64.6631 10.3896 65.2327 10.2692 65.7959 10.0283V10.751C65.5094 10.8747 65.2376 10.9626 64.9805 11.0146C64.7266 11.07 64.4189 11.0977 64.0576 11.0977ZM63.8379 6.22949C63.4082 6.22949 63.0648 6.36947 62.8076 6.64941C62.5537 6.92936 62.404 7.31673 62.3584 7.81152H65.1562C65.1562 7.30046 65.0423 6.90983 64.8145 6.63965C64.5866 6.36621 64.2611 6.22949 63.8379 6.22949ZM70.8643 9.54004C70.8643 10.0381 70.6787 10.4222 70.3076 10.6924C69.9365 10.9626 69.4157 11.0977 68.7451 11.0977C68.0355 11.0977 67.4821 10.9854 67.085 10.7607V10.0088C67.3421 10.139 67.6172 10.2415 67.9102 10.3164C68.2064 10.3913 68.4912 10.4287 68.7646 10.4287C69.1878 10.4287 69.5133 10.362 69.7412 10.2285C69.9691 10.0918 70.083 9.88509 70.083 9.6084C70.083 9.40007 69.9919 9.22266 69.8096 9.07617C69.6305 8.92643 69.279 8.75065 68.7549 8.54883C68.2568 8.36328 67.902 8.20215 67.6904 8.06543C67.4821 7.92546 67.3258 7.76758 67.2217 7.5918C67.1208 7.41602 67.0703 7.20605 67.0703 6.96191C67.0703 6.52572 67.2477 6.18229 67.6025 5.93164C67.9574 5.67773 68.444 5.55078 69.0625 5.55078C69.6387 5.55078 70.2018 5.66797 70.752 5.90234L70.4639 6.56152C69.9268 6.34017 69.4401 6.22949 69.0039 6.22949C68.6198 6.22949 68.3301 6.28971 68.1348 6.41016C67.9395 6.5306 67.8418 6.69661 67.8418 6.9082C67.8418 7.05143 67.8776 7.1735 67.9492 7.27441C68.0241 7.37533 68.1429 7.47135 68.3057 7.5625C68.4684 7.65365 68.7809 7.78548 69.2432 7.95801C69.8779 8.18913 70.306 8.42188 70.5273 8.65625C70.752 8.89062 70.8643 9.18522 70.8643 9.54004ZM74.9072 11V3.86133H75.7373V11H74.9072ZM84.3994 11V7.51855C84.3994 7.09212 84.3083 6.77311 84.126 6.56152C83.9437 6.34668 83.6605 6.23926 83.2764 6.23926C82.7718 6.23926 82.3991 6.38411 82.1582 6.67383C81.9173 6.96354 81.7969 7.40951 81.7969 8.01172V11H80.9863V7.51855C80.9863 7.09212 80.8952 6.77311 80.7129 6.56152C80.5306 6.34668 80.2458 6.23926 79.8584 6.23926C79.3506 6.23926 78.9779 6.39225 78.7402 6.69824C78.5059 7.00098 78.3887 7.49902 78.3887 8.19238V11H77.5781V5.64844H78.2373L78.3691 6.38086H78.4082C78.5612 6.12044 78.776 5.91699 79.0527 5.77051C79.3327 5.62402 79.6452 5.55078 79.9902 5.55078C80.8268 5.55078 81.3737 5.85352 81.6309 6.45898H81.6699C81.8294 6.17904 82.0605 5.95768 82.3633 5.79492C82.666 5.63216 83.0111 5.55078 83.3984 5.55078C84.0039 5.55078 84.4564 5.70703 84.7559 6.01953C85.0586 6.32878 85.21 6.8252 85.21 7.50879V11H84.3994ZM90.1758 11L90.0146 10.2383H89.9756C89.7087 10.5736 89.4417 10.8014 89.1748 10.9219C88.9111 11.0391 88.5807 11.0977 88.1836 11.0977C87.653 11.0977 87.2363 10.9609 86.9336 10.6875C86.6341 10.4141 86.4844 10.0251 86.4844 9.52051C86.4844 8.43978 87.3486 7.87337 89.0771 7.82129L89.9854 7.79199V7.45996C89.9854 7.04004 89.8942 6.73079 89.7119 6.53223C89.5329 6.3304 89.2448 6.22949 88.8477 6.22949C88.4017 6.22949 87.8971 6.36621 87.334 6.63965L87.085 6.01953C87.3486 5.8763 87.6367 5.764 87.9492 5.68262C88.265 5.60124 88.5807 5.56055 88.8965 5.56055C89.5345 5.56055 90.0065 5.70215 90.3125 5.98535C90.6217 6.26855 90.7764 6.72266 90.7764 7.34766V11H90.1758ZM88.3447 10.4287C88.8493 10.4287 89.2448 10.2904 89.5312 10.0137C89.821 9.73698 89.9658 9.34961 89.9658 8.85156V8.36816L89.1553 8.40234C88.5107 8.42513 88.0452 8.52604 87.7588 8.70508C87.4756 8.88086 87.334 9.15592 87.334 9.53027C87.334 9.82324 87.4219 10.0462 87.5977 10.1992C87.7767 10.3522 88.0257 10.4287 88.3447 10.4287ZM96.8311 5.64844V6.16113L95.8398 6.27832C95.931 6.39225 96.0124 6.54199 96.084 6.72754C96.1556 6.90983 96.1914 7.11654 96.1914 7.34766C96.1914 7.87174 96.0124 8.29004 95.6543 8.60254C95.2962 8.91504 94.8047 9.07129 94.1797 9.07129C94.0202 9.07129 93.8704 9.05827 93.7305 9.03223C93.3854 9.21452 93.2129 9.44401 93.2129 9.7207C93.2129 9.86719 93.2731 9.97624 93.3936 10.0479C93.514 10.1162 93.7207 10.1504 94.0137 10.1504H94.9609C95.5404 10.1504 95.9847 10.2725 96.2939 10.5166C96.6064 10.7607 96.7627 11.1156 96.7627 11.5811C96.7627 12.1735 96.5251 12.6243 96.0498 12.9336C95.5745 13.2461 94.8812 13.4023 93.9697 13.4023C93.2699 13.4023 92.7295 13.2721 92.3486 13.0117C91.971 12.7513 91.7822 12.3835 91.7822 11.9082C91.7822 11.5827 91.8864 11.3011 92.0947 11.0635C92.3031 10.8258 92.596 10.6647 92.9736 10.5801C92.8369 10.5182 92.7214 10.4222 92.627 10.292C92.5358 10.1618 92.4902 10.0104 92.4902 9.83789C92.4902 9.64258 92.5423 9.47168 92.6465 9.3252C92.7507 9.17871 92.915 9.03711 93.1396 8.90039C92.863 8.78646 92.6367 8.59277 92.4609 8.31934C92.2884 8.0459 92.2021 7.7334 92.2021 7.38184C92.2021 6.7959 92.3779 6.34505 92.7295 6.0293C93.0811 5.71029 93.5791 5.55078 94.2236 5.55078C94.5036 5.55078 94.7559 5.58333 94.9805 5.64844H96.8311ZM92.5635 11.8984C92.5635 12.1882 92.6855 12.4079 92.9297 12.5576C93.1738 12.7074 93.5238 12.7822 93.9795 12.7822C94.6598 12.7822 95.1628 12.6797 95.4883 12.4746C95.8171 12.2728 95.9814 11.9977 95.9814 11.6494C95.9814 11.3597 95.8919 11.1579 95.7129 11.0439C95.5339 10.9333 95.1969 10.8779 94.7021 10.8779H93.7305C93.3626 10.8779 93.0762 10.9658 92.8711 11.1416C92.666 11.3174 92.5635 11.5697 92.5635 11.8984ZM93.0029 7.3623C93.0029 7.73665 93.1087 8.01986 93.3203 8.21191C93.5319 8.40397 93.8265 8.5 94.2041 8.5C94.9951 8.5 95.3906 8.11589 95.3906 7.34766C95.3906 6.54362 94.9902 6.1416 94.1895 6.1416C93.8086 6.1416 93.5156 6.24414 93.3105 6.44922C93.1055 6.6543 93.0029 6.95866 93.0029 7.3623ZM100.19 11.0977C99.3994 11.0977 98.7744 10.8568 98.3154 10.375C97.8597 9.89323 97.6318 9.22428 97.6318 8.36816C97.6318 7.50553 97.8434 6.82031 98.2666 6.3125C98.693 5.80469 99.2643 5.55078 99.9805 5.55078C100.651 5.55078 101.182 5.77214 101.572 6.21484C101.963 6.6543 102.158 7.23535 102.158 7.95801V8.4707H98.4717C98.488 9.09896 98.6458 9.57585 98.9453 9.90137C99.248 10.2269 99.6729 10.3896 100.22 10.3896C100.796 10.3896 101.366 10.2692 101.929 10.0283V10.751C101.642 10.8747 101.37 10.9626 101.113 11.0146C100.859 11.07 100.552 11.0977 100.19 11.0977ZM99.9707 6.22949C99.541 6.22949 99.1976 6.36947 98.9404 6.64941C98.6865 6.92936 98.5368 7.31673 98.4912 7.81152H101.289C101.289 7.30046 101.175 6.90983 100.947 6.63965C100.719 6.36621 100.394 6.22949 99.9707 6.22949ZM35.5078 19.9414C35.5078 20.6641 35.2604 21.2207 34.7656 21.6113C34.2741 21.9987 33.5693 22.1924 32.6514 22.1924H31.8115V25H30.9814V17.8613H32.832C34.6159 17.8613 35.5078 18.5547 35.5078 19.9414ZM31.8115 21.4795H32.5586C33.2943 21.4795 33.8265 21.3607 34.1553 21.123C34.484 20.8854 34.6484 20.5046 34.6484 19.9805C34.6484 19.5085 34.4938 19.1569 34.1846 18.9258C33.8753 18.6947 33.3936 18.5791 32.7393 18.5791H31.8115V21.4795ZM42.583 25H41.6357L37.7344 19.0088H37.6953C37.7474 19.7119 37.7734 20.3564 37.7734 20.9424V25H37.0068V17.8613H37.9443L41.8359 23.8281H41.875C41.8685 23.7402 41.8538 23.4587 41.8311 22.9834C41.8083 22.5049 41.8001 22.1631 41.8066 21.958V17.8613H42.583V25ZM47.6855 21.2598H50.1123V24.7314C49.7347 24.8519 49.3506 24.943 48.96 25.0049C48.5693 25.0667 48.1169 25.0977 47.6025 25.0977C46.5218 25.0977 45.6803 24.777 45.0781 24.1357C44.4759 23.4912 44.1748 22.5895 44.1748 21.4307C44.1748 20.6885 44.3229 20.0391 44.6191 19.4824C44.9186 18.9225 45.3483 18.4961 45.9082 18.2031C46.4681 17.9069 47.124 17.7588 47.876 17.7588C48.6377 17.7588 49.3473 17.8988 50.0049 18.1787L49.6826 18.9111C49.0381 18.6377 48.418 18.501 47.8223 18.501C46.9531 18.501 46.2744 18.7598 45.7861 19.2773C45.2979 19.7949 45.0537 20.5127 45.0537 21.4307C45.0537 22.3942 45.2881 23.125 45.7568 23.623C46.2288 24.1211 46.9206 24.3701 47.832 24.3701C48.3268 24.3701 48.8102 24.3132 49.2822 24.1992V22.002H47.6855V21.2598ZM52.5586 23.8379L52.6318 23.9502C52.5472 24.2757 52.4251 24.6533 52.2656 25.083C52.1061 25.516 51.9401 25.918 51.7676 26.2891H51.1572C51.2451 25.9505 51.3411 25.5322 51.4453 25.0342C51.5527 24.5361 51.6276 24.1374 51.6699 23.8379H52.5586ZM55.8398 26.8799C55.5339 26.8799 55.293 26.8359 55.1172 26.748V26.04C55.3483 26.1051 55.5892 26.1377 55.8398 26.1377C56.1621 26.1377 56.4062 26.04 56.5723 25.8447C56.7415 25.6494 56.8262 25.3678 56.8262 25V17.8613H57.6562V24.9316C57.6562 25.5501 57.5 26.0286 57.1875 26.3672C56.875 26.709 56.4258 26.8799 55.8398 26.8799ZM64.082 19.9414C64.082 20.6641 63.8346 21.2207 63.3398 21.6113C62.8483 21.9987 62.1436 22.1924 61.2256 22.1924H60.3857V25H59.5557V17.8613H61.4062C63.1901 17.8613 64.082 18.5547 64.082 19.9414ZM60.3857 21.4795H61.1328C61.8685 21.4795 62.4007 21.3607 62.7295 21.123C63.0583 20.8854 63.2227 20.5046 63.2227 19.9805C63.2227 19.5085 63.068 19.1569 62.7588 18.9258C62.4495 18.6947 61.9678 18.5791 61.3135 18.5791H60.3857V21.4795ZM68.7207 21.2598H71.1475V24.7314C70.7699 24.8519 70.3857 24.943 69.9951 25.0049C69.6045 25.0667 69.152 25.0977 68.6377 25.0977C67.557 25.0977 66.7155 24.777 66.1133 24.1357C65.5111 23.4912 65.21 22.5895 65.21 21.4307C65.21 20.6885 65.3581 20.0391 65.6543 19.4824C65.9538 18.9225 66.3835 18.4961 66.9434 18.2031C67.5033 17.9069 68.1592 17.7588 68.9111 17.7588C69.6729 17.7588 70.3825 17.8988 71.04 18.1787L70.7178 18.9111C70.0732 18.6377 69.4531 18.501 68.8574 18.501C67.9883 18.501 67.3096 18.7598 66.8213 19.2773C66.333 19.7949 66.0889 20.5127 66.0889 21.4307C66.0889 22.3942 66.3232 23.125 66.792 23.623C67.264 24.1211 67.9557 24.3701 68.8672 24.3701C69.362 24.3701 69.8454 24.3132 70.3174 24.1992V22.002H68.7207V21.2598ZM79.9609 22.3193C79.9609 23.1917 79.7412 23.8737 79.3018 24.3652C78.8623 24.8535 78.2552 25.0977 77.4805 25.0977C77.002 25.0977 76.5771 24.9854 76.2061 24.7607C75.835 24.5361 75.5485 24.2139 75.3467 23.7939C75.1449 23.374 75.0439 22.8825 75.0439 22.3193C75.0439 21.4469 75.262 20.7682 75.6982 20.2832C76.1344 19.7949 76.7399 19.5508 77.5146 19.5508C78.2633 19.5508 78.8574 19.7998 79.2969 20.2979C79.7396 20.7959 79.9609 21.4697 79.9609 22.3193ZM75.8838 22.3193C75.8838 23.0029 76.0205 23.5238 76.2939 23.8818C76.5674 24.2399 76.9694 24.4189 77.5 24.4189C78.0306 24.4189 78.4326 24.2415 78.7061 23.8867C78.9827 23.5286 79.1211 23.0062 79.1211 22.3193C79.1211 21.639 78.9827 21.123 78.7061 20.7715C78.4326 20.4167 78.0273 20.2393 77.4902 20.2393C76.9596 20.2393 76.5592 20.4134 76.2891 20.7617C76.0189 21.11 75.8838 21.6292 75.8838 22.3193ZM83.8281 19.5508C84.0658 19.5508 84.279 19.5703 84.4678 19.6094L84.3555 20.3613C84.1341 20.3125 83.9388 20.2881 83.7695 20.2881C83.3366 20.2881 82.9655 20.4639 82.6562 20.8154C82.3503 21.167 82.1973 21.6048 82.1973 22.1289V25H81.3867V19.6484H82.0557L82.1484 20.6396H82.1875C82.3861 20.2913 82.6253 20.0228 82.9053 19.834C83.1852 19.6452 83.4928 19.5508 83.8281 19.5508ZM91.3281 21.2598H93.7549V24.7314C93.3773 24.8519 92.9932 24.943 92.6025 25.0049C92.2119 25.0667 91.7594 25.0977 91.2451 25.0977C90.1644 25.0977 89.3229 24.777 88.7207 24.1357C88.1185 23.4912 87.8174 22.5895 87.8174 21.4307C87.8174 20.6885 87.9655 20.0391 88.2617 19.4824C88.5612 18.9225 88.9909 18.4961 89.5508 18.2031C90.1107 17.9069 90.7666 17.7588 91.5186 17.7588C92.2803 17.7588 92.9899 17.8988 93.6475 18.1787L93.3252 18.9111C92.6807 18.6377 92.0605 18.501 91.4648 18.501C90.5957 18.501 89.917 18.7598 89.4287 19.2773C88.9404 19.7949 88.6963 20.5127 88.6963 21.4307C88.6963 22.3942 88.9307 23.125 89.3994 23.623C89.8714 24.1211 90.5632 24.3701 91.4746 24.3701C91.9694 24.3701 92.4528 24.3132 92.9248 24.1992V22.002H91.3281V21.2598ZM95.4736 25V17.8613H96.3037V25H95.4736ZM99.0967 25H98.2666V17.8613H102.246V18.5986H99.0967V21.2109H102.056V21.9482H99.0967V25Z" fill="#1F2A36"/>
<path d="M25.375 0H2.625C1.17523 0 0 1.17523 0 2.625V25.375C0 26.8248 1.17523 28 2.625 28H25.375C26.8248 28 28 26.8248 28 25.375V2.625C28 1.17523 26.8248 0 25.375 0ZM26.25 25.375C26.25 25.8583 25.8583 26.25 25.375 26.25H2.625C2.14173 26.25 1.75 25.8583 1.75 25.375V2.625C1.75 2.14173 2.14173 1.75 2.625 1.75H25.375C25.8583 1.75 26.25 2.14173 26.25 2.625V25.375Z" fill="#9EA0A5"/>
<path d="M18.9957 15.1285C18.6544 14.7893 18.1032 14.7893 17.7619 15.1285L15.7494 17.141L11.9957 13.3873C11.6544 13.048 11.1032 13.048 10.7619 13.3873L4.63693 19.5123C4.29863 19.8574 4.30405 20.4113 4.64912 20.7496C4.80963 20.907 5.02461 20.9966 5.24943 20.9998H22.7494C23.2327 21.0026 23.6267 20.6131 23.6295 20.1299C23.6309 19.8948 23.5376 19.6691 23.3707 19.5035L18.9957 15.1285Z" fill="#9EA0A5"/>
<path d="M16.625 12.25C18.0747 12.25 19.25 11.0747 19.25 9.625C19.25 8.17525 18.0747 7 16.625 7C15.1753 7 14 8.17525 14 9.625C14 11.0747 15.1753 12.25 16.625 12.25Z" fill="#9EA0A5"/>
</svg>
